<svg xmlns="http://www.w3.org/2000/svg" xmlns:xlink="http://www.w3.org/1999/xlink" width="44.566" height="45.522" viewBox="0 0 44.566 45.522">
  <defs>
    <filter id="Icon_metro-heart" x="0" y="2.478" width="44.566" height="43.044" filterUnits="userSpaceOnUse">
      <feOffset dy="3" input="SourceAlpha"/>
      <feGaussianBlur stdDeviation="4" result="blur"/>
      <feFlood flood-color="#fff" flood-opacity="0.161"/>
      <feComposite operator="in" in2="blur"/>
      <feComposite in="SourceGraphic"/>
    </filter>
  </defs>
  <g id="Group_20" data-name="Group 20" transform="translate(-527.717 -263)">
    <circle id="Ellipse_2" data-name="Ellipse 2" cx="20" cy="20" r="20" transform="translate(530 263)" fill="#d0d0d0" opacity="0.2"/>
    <g transform="matrix(1, 0, 0, 1, 527.72, 263)" filter="url(#Icon_metro-heart)">
      <path id="Icon_metro-heart-2" data-name="Icon metro-heart" d="M16.881,2.571c-2.162,0-4.022,1.758-4.884,3.595-.862-1.837-2.723-3.595-4.885-3.595a5.4,5.4,0,0,0-5.4,5.4c0,6.062,6.115,7.652,10.283,13.645,3.939-5.956,10.282-7.777,10.282-13.645A5.4,5.4,0,0,0,16.881,2.571Z" transform="translate(10.29 8.91)" fill="#d0d0d0"/>
    </g>
  </g>
</svg>
